<svg width="206" height="130" viewBox="0 0 206 130" fill="none" xmlns="http://www.w3.org/2000/svg">
<rect x="1" y="1" width="204" height="128" rx="19" fill="white" stroke="#2C2A29" stroke-width="2"/>
<g clip-path="url(#clip0_1235_15981)">
<path d="M157.556 34.0581C157.556 36.2382 159.317 37.9927 161.49 37.9927H165.66V33.5883H157.556V34.0581Z" fill="#2C2A29"/>
<path d="M165.66 27.701H157.556V32.1935H165.66V27.701Z" fill="#2C2A29"/>
<path d="M157.556 19.9346V20.4044H165.66V16H161.49C159.317 16 157.556 17.7618 157.556 19.9346Z" fill="#2C2A29"/>
<path d="M178.058 16H167.062V38H172.656V20.4117H182V19.9419C182 17.7691 180.239 16.0073 178.066 16.0073L178.058 16Z" fill="#2C2A29"/>
<path d="M165.66 21.8065H157.556V26.2989H165.66V21.8065Z" fill="#2C2A29"/>
<path d="M181.993 21.8065H174.05V26.2989H181.993V21.8065Z" fill="#2C2A29"/>
<path d="M181.993 27.701H174.05V32.1935H181.993V27.701Z" fill="#2C2A29"/>
<path d="M174.05 38H178.058C180.231 38 181.993 36.2382 181.993 34.0654V33.5956H174.05V38Z" fill="#2C2A29"/>
</g>
<path d="M64 56V49.6616H59.1737L56.6899 46.9141L54.1929 49.6616H38.2818V36.8586H33.1465L39.5162 22.4434H45.6596L47.8525 27.3818V22.4434H55.4566L56.7768 26.1646L58.1051 22.4434H64V16H24V56H64ZM59.9869 48.0586H64L58.6919 42.4293L64 36.8646H60.0505L56.7727 40.4465L53.5263 36.8646H49.5121L54.7889 42.4616L49.5121 48.0586H53.4141L56.7081 44.4444L59.9869 48.0586ZM60.9263 42.4343L64 45.705V39.1919L60.9263 42.4343ZM43.0364 45.4677V43.7242H49.3525V41.198H43.0364V39.4556H49.5131V36.8646H39.9818V48.0586H49.5131V45.4677H43.0364V45.4677ZM60.9778 35.2404H64V24.0455H59.298L56.7869 31.0182L54.2919 24.0455H49.5101V35.2394H52.5323V27.404L55.4111 35.2404H58.098L60.9768 27.3879V35.2404H60.9778ZM46.0727 35.2404H49.5111L44.5697 24.0465H40.6364L35.6949 35.2404H39.0535L39.9808 33.002H45.1303L46.0727 35.2404ZM44.0747 30.4909H41.0364L42.5556 26.8293L44.0747 30.4909Z" fill="#2C2A29"/>
<path d="M24.5829 83.1745C24.2784 83.1745 24 83.0092 24 82.5829C24 82.1566 24.2784 82 24.5829 82H28.6284C29.2983 82 29.8029 82.5046 29.8029 83.1745V85.4278C29.8029 85.8976 29.7072 86.2369 29.3418 86.5675C29.7072 86.8981 29.8029 87.2374 29.8029 87.7072V89.9605C29.8029 90.6304 29.2983 91.135 28.6284 91.135H24.5829C24.2784 91.135 24 90.9697 24 90.5521C24 90.1345 24.2784 89.9692 24.5829 89.9692H28.6284V88.0204C28.6284 87.3592 28.3674 87.1678 28.0368 87.1678H25.74C25.4355 87.1678 25.1571 87.0025 25.1571 86.5762C25.1571 86.1499 25.4355 85.9933 25.74 85.9933H28.0455C28.3761 85.9933 28.6371 85.7932 28.6371 85.132V83.1745H24.5829Z" fill="#2C2A29"/>
<path d="M37.0848 89.9605V87.5854C37.0848 87.2461 37.2327 86.9938 37.6677 86.9938C38.1027 86.9938 38.2593 87.2461 38.2593 87.5854V90.5434C38.2593 90.9697 37.9809 91.1263 37.6677 91.1263H33.0394C32.7349 91.1263 32.4478 90.961 32.4478 90.5434C32.4478 90.1258 32.7262 89.9605 33.0394 89.9605H34.7619V83.1745H33.0394C32.7349 83.1745 32.4478 83.0092 32.4478 82.5829C32.4478 82.1566 32.7262 82 33.0394 82H35.9364V89.9605H37.0761H37.0848Z" fill="#2C2A29"/>
<path d="M44.9495 86.9851V83.5834C44.9495 83.2876 45.0887 83.0005 45.5411 83.0005C45.9935 83.0005 46.124 83.2963 46.124 83.5834V86.9851C46.4285 86.9851 46.7156 87.1504 46.7156 87.568C46.7156 87.9856 46.4372 88.1509 46.124 88.1509V90.5434C46.124 90.9175 45.9587 91.1263 45.5411 91.1263C45.1235 91.1263 44.9495 90.9175 44.9495 90.5434V88.1509H41.4956V82.5829C41.4956 82.2871 41.6348 82 42.0872 82C42.5396 82 42.6701 82.2958 42.6701 82.5829V86.9851H44.9495V86.9851Z" fill="#2C2A29"/>
<path d="M53.9971 89.9605V87.5854C53.9971 87.2461 54.1537 86.9938 54.5887 86.9938C55.0237 86.9938 55.1716 87.2461 55.1716 87.5854V90.5434C55.1716 90.9697 54.8932 91.1263 54.5887 91.1263H49.9603C49.6558 91.1263 49.3774 90.961 49.3774 90.5434C49.3774 90.1258 49.6558 89.9605 49.9603 89.9605H51.6916V83.1745H49.9603C49.6558 83.1745 49.3774 83.0092 49.3774 82.5829C49.3774 82.1566 49.6558 82 49.9603 82H52.8661V89.9605H54.0058H53.9971Z" fill="#2C2A29"/>
<path d="M68.6137 85.9846H70.7713C71.1454 85.9846 71.4325 86.0455 71.7109 86.3152C72.0415 86.6197 72.0763 86.8981 72.0763 87.3157V89.83C72.0763 90.1954 72.0415 90.4564 71.7979 90.7435C71.5021 91.1002 71.1976 91.1437 70.7713 91.1437H68.1613C67.8568 91.1437 67.6828 91.0654 67.387 90.9349L66.9433 90.7348C66.6301 90.5956 66.2734 90.4825 66.2734 90.0736C66.2734 89.7691 66.5344 89.4907 66.8389 89.4907C66.9781 89.4907 67.0825 89.5255 67.213 89.5864L67.5697 89.743C67.735 89.8126 68.0047 89.9779 68.1961 89.9779H70.9105V87.1678H67.4479V82H71.5021C71.8066 82 72.0937 82.1653 72.0937 82.5829C72.0937 83.0005 71.8153 83.1745 71.5021 83.1745H68.6224V85.9846H68.6137Z" fill="#2C2A29"/>
<path d="M79.3667 86.176H75.3299C74.9993 86.176 74.7383 85.8976 74.7383 85.5931V82.5829C74.7383 82.2784 74.9993 82 75.3299 82H79.9583C80.2889 82 80.5412 82.2871 80.5412 82.5829V90.5521C80.5412 90.8653 80.3063 91.135 79.9583 91.135H79.3667C79.01 91.135 78.7751 90.8653 78.7751 90.5521C78.7751 90.2041 79.0187 89.9692 79.3667 89.9692V86.176V86.176ZM79.3667 85.0015V83.1745H75.9128V85.0015H79.3667V85.0015Z" fill="#2C2A29"/>
<path d="M84.3605 89.9605H88.3973C88.7018 89.9605 88.9802 90.1258 88.9802 90.5434C88.9802 90.961 88.7018 91.1263 88.3973 91.1263H83.186V87.307C83.186 86.4283 83.6297 85.9846 84.5171 85.9846H87.8144V83.1745H83.7689C83.4644 83.1745 83.186 83.0092 83.186 82.5829C83.186 82.1566 83.4644 82 83.7689 82H87.6665C88.058 82 88.3277 82.0609 88.6148 82.3306C88.9454 82.6351 88.9802 82.957 88.9802 83.3746V85.7845C88.9802 86.2108 88.9454 86.524 88.6148 86.8285C88.319 87.0982 88.0493 87.1591 87.6665 87.1591H84.3518V89.9692L84.3605 89.9605Z" fill="#2C2A29"/>
<path d="M92.8165 86.9851H96.7402C97.3318 86.9851 97.4449 87.2287 97.4449 87.7681V90.3955C97.4449 90.9436 97.21 91.135 96.6793 91.135H92.3989C91.8508 91.135 91.6333 90.9349 91.6333 90.3955V82.5829C91.6333 82.3132 91.729 82 92.1379 82H92.8426C93.1471 82 93.3907 82.2871 93.3907 82.5829C93.3907 82.9396 93.1471 83.1745 92.8078 83.1745V86.9851H92.8165ZM92.8165 88.1596V89.9692H96.2704V88.1596H92.8165Z" fill="#2C2A29"/>
<path d="M110.895 85.9846H113.053C113.427 85.9846 113.714 86.0455 113.993 86.3152C114.315 86.6197 114.358 86.8981 114.358 87.3157V89.83C114.358 90.1954 114.323 90.4564 114.08 90.7435C113.784 91.1002 113.479 91.1437 113.053 91.1437H110.443C110.139 91.1437 109.965 91.0654 109.669 90.9349L109.225 90.7348C108.912 90.5956 108.555 90.4825 108.555 90.0736C108.555 89.7691 108.816 89.4907 109.121 89.4907C109.26 89.4907 109.364 89.5255 109.495 89.5864L109.843 89.743C110.008 89.8126 110.278 89.9779 110.469 89.9779H113.184V87.1678H109.721V82H113.775C114.08 82 114.358 82.1653 114.358 82.5829C114.358 83.0005 114.08 83.1745 113.775 83.1745H110.895V85.9846V85.9846Z" fill="#2C2A29"/>
<path d="M117.603 83.1745C117.298 83.1745 117.02 83.0092 117.02 82.5829C117.02 82.1566 117.298 82 117.603 82H121.648C122.318 82 122.823 82.5046 122.823 83.1745V85.4278C122.823 85.8976 122.727 86.2369 122.362 86.5675C122.727 86.8981 122.823 87.2374 122.823 87.7072V89.9605C122.823 90.6304 122.318 91.135 121.648 91.135H117.603C117.298 91.135 117.02 90.9697 117.02 90.5521C117.02 90.1345 117.298 89.9692 117.603 89.9692H121.648V88.0204C121.648 87.3592 121.387 87.1678 121.057 87.1678H118.751C118.447 87.1678 118.16 87.0025 118.16 86.5762C118.16 86.1499 118.447 85.9933 118.751 85.9933H121.057C121.387 85.9933 121.648 85.7932 121.648 85.132V83.1745H117.603Z" fill="#2C2A29"/>
<path d="M127.808 85.9846H129.974C130.349 85.9846 130.636 86.0455 130.914 86.3152C131.245 86.6197 131.279 86.8981 131.279 87.3157V89.83C131.279 90.1954 131.245 90.4564 130.992 90.7435C130.697 91.1002 130.392 91.1437 129.974 91.1437H127.364C127.06 91.1437 126.886 91.0654 126.59 90.9349L126.146 90.7348C125.833 90.5956 125.477 90.4825 125.477 90.0736C125.477 89.7691 125.738 89.4907 126.042 89.4907C126.181 89.4907 126.286 89.5255 126.416 89.5864L126.764 89.743C126.929 89.8126 127.199 89.9779 127.391 89.9779H130.105V87.1678H126.642V82H130.697C131.001 82 131.288 82.1653 131.288 82.5829C131.288 83.0005 131.001 83.1745 130.697 83.1745H127.817V85.9846H127.808Z" fill="#2C2A29"/>
<path d="M137.961 82C138.361 82 138.553 82.2871 138.553 82.5829V85.9759C138.918 85.9759 139.196 86.1064 139.405 86.3065C139.614 86.5066 139.727 86.8024 139.727 87.1678V89.9605C139.727 90.6739 139.283 91.135 138.553 91.135H135.099C134.368 91.135 133.924 90.6826 133.924 89.9605V87.1678C133.924 86.8024 134.029 86.5066 134.238 86.3065C134.446 86.1064 134.733 85.9759 135.099 85.9759V82.5829C135.099 82.2784 135.282 82 135.682 82H137.961ZM138.553 89.9605V87.1504H135.099V89.9605H138.553ZM137.378 85.9759V83.1745H136.273V85.9846H137.378V85.9759Z" fill="#2C2A29"/>
<path d="M155.465 86.176H151.429C151.098 86.176 150.837 85.8976 150.837 85.5931V82.5829C150.837 82.2784 151.098 82 151.429 82H156.057C156.387 82 156.64 82.2871 156.64 82.5829V90.5521C156.64 90.8653 156.405 91.135 156.057 91.135H155.474C155.117 91.135 154.882 90.8653 154.882 90.5521C154.882 90.2041 155.126 89.9692 155.474 89.9692V86.176H155.465ZM155.465 85.0015V83.1745H152.011V85.0015H155.465V85.0015Z" fill="#2C2A29"/>
<path d="M160.468 83.1745C160.468 83.4355 160.259 83.7574 159.876 83.7574C159.494 83.7574 159.293 83.4268 159.293 83.1745V82.5829C159.293 82.3219 159.502 82 159.876 82H165.096V85.4017C165.096 85.8193 165.105 85.8628 164.783 86.1412L163.139 87.5593C162.834 87.829 162.808 87.8551 162.808 88.264V90.5434C162.808 90.9175 162.643 91.1263 162.225 91.1263C161.808 91.1263 161.642 90.9175 161.642 90.5434V87.7159C161.642 87.3244 161.651 87.2896 161.947 87.0373L163.565 85.6366C163.957 85.2973 163.931 85.306 163.931 84.7927V83.1745H160.477H160.468Z" fill="#2C2A29"/>
<path d="M172.378 86.176H168.332C168.002 86.176 167.75 85.8976 167.75 85.5931V82.5829C167.75 82.2784 168.011 82 168.332 82H172.961C173.283 82 173.544 82.2871 173.544 82.5829V90.5521C173.544 90.8653 173.309 91.135 172.961 91.135H172.369C172.021 91.135 171.786 90.8653 171.786 90.5521C171.786 90.2041 172.03 89.9692 172.369 89.9692V86.176H172.378ZM172.378 85.0015V83.1745H168.924V85.0015H172.378V85.0015Z" fill="#2C2A29"/>
<path d="M176.789 83.1745C176.484 83.1745 176.206 83.0092 176.206 82.5829C176.206 82.1566 176.484 82 176.789 82H180.826C181.496 82 182 82.5046 182 83.1745V85.4278C182 85.8976 181.905 86.2369 181.539 86.5675C181.905 86.8981 182 87.2374 182 87.7072V89.9605C182 90.6304 181.496 91.135 180.826 91.135H176.789C176.484 91.135 176.206 90.9697 176.206 90.5521C176.206 90.1345 176.484 89.9692 176.789 89.9692H180.826V88.0204C180.826 87.3592 180.565 87.1678 180.234 87.1678H177.937C177.633 87.1678 177.346 87.0025 177.346 86.5762C177.346 86.1499 177.633 85.9933 177.937 85.9933H180.234C180.565 85.9933 180.826 85.7932 180.826 85.132V83.1745H176.789Z" fill="#2C2A29"/>
<g opacity="0.6" filter="url(#filter0_f_1235_15981)">
<circle cx="163.5" cy="68.5" r="24.5" fill="white" fill-opacity="0.8"/>
<circle cx="163.5" cy="68.5" r="24" stroke="#ED0000"/>
</g>
<path d="M151.609 75H149.195V68.3906L149.219 67.3047L149.258 66.1172C148.857 66.5182 148.578 66.7812 148.422 66.9062L147.109 67.9609L145.945 66.5078L149.625 63.5781H151.609V75ZM162.734 75H154.749V73.3203L157.616 70.4219C158.465 69.5521 159.02 68.9505 159.281 68.6172C159.541 68.2786 159.728 67.9661 159.843 67.6797C159.958 67.3932 160.015 67.0964 160.015 66.7891C160.015 66.3307 159.887 65.9896 159.632 65.7656C159.382 65.5417 159.046 65.4297 158.624 65.4297C158.182 65.4297 157.752 65.5312 157.335 65.7344C156.919 65.9375 156.484 66.2266 156.031 66.6016L154.718 65.0469C155.281 64.5677 155.747 64.2292 156.116 64.0312C156.486 63.8333 156.89 63.6823 157.327 63.5781C157.765 63.4688 158.254 63.4141 158.796 63.4141C159.51 63.4141 160.14 63.5443 160.687 63.8047C161.234 64.0651 161.658 64.4297 161.96 64.8984C162.262 65.3672 162.413 65.9036 162.413 66.5078C162.413 67.0339 162.32 67.5286 162.132 67.9922C161.95 68.4505 161.663 68.9219 161.273 69.4062C160.887 69.8906 160.205 70.5807 159.226 71.4766L157.757 72.8594V72.9688H162.734V75ZM171.397 66.1328C171.397 66.8464 171.181 67.4531 170.749 67.9531C170.316 68.4531 169.709 68.7969 168.928 68.9844V69.0312C169.85 69.1458 170.548 69.4271 171.022 69.875C171.496 70.3177 171.733 70.9167 171.733 71.6719C171.733 72.7708 171.334 73.6276 170.538 74.2422C169.741 74.8516 168.603 75.1562 167.124 75.1562C165.884 75.1562 164.785 74.9505 163.827 74.5391V72.4844C164.269 72.7083 164.756 72.8906 165.288 73.0312C165.819 73.1719 166.345 73.2422 166.866 73.2422C167.663 73.2422 168.251 73.1068 168.631 72.8359C169.012 72.5651 169.202 72.1302 169.202 71.5312C169.202 70.9948 168.983 70.6146 168.545 70.3906C168.108 70.1667 167.41 70.0547 166.452 70.0547H165.584V68.2031H166.467C167.353 68.2031 167.999 68.0885 168.405 67.8594C168.816 67.625 169.022 67.2266 169.022 66.6641C169.022 65.7995 168.48 65.3672 167.397 65.3672C167.022 65.3672 166.639 65.4297 166.249 65.5547C165.863 65.6797 165.433 65.8958 164.959 66.2031L163.842 64.5391C164.884 63.7891 166.126 63.4141 167.569 63.4141C168.751 63.4141 169.683 63.6536 170.366 64.1328C171.053 64.612 171.397 65.2786 171.397 66.1328ZM181.209 72.6328H179.834V75H177.474V72.6328H172.599V70.9531L177.607 63.5781H179.834V70.7578H181.209V72.6328ZM177.474 70.7578V68.8203C177.474 68.4974 177.487 68.0286 177.513 67.4141C177.539 66.7995 177.56 66.4427 177.576 66.3438H177.513C177.321 66.7708 177.089 67.1875 176.818 67.5938L174.724 70.7578H177.474Z" fill="#2C2A29"/>
<path d="M24.852 114.644C24.852 116.528 25.704 117.68 27.624 117.68C29.544 117.68 30.42 116.408 30.42 114.644V111.38C30.42 109.484 29.544 108.272 27.624 108.272C25.704 108.272 24.852 109.496 24.852 111.38V114.644ZM26.028 111.296C26.028 109.94 26.544 109.34 27.624 109.34C28.716 109.34 29.244 109.94 29.244 111.296V114.728C29.244 115.844 28.836 116.612 27.624 116.612C26.424 116.612 26.028 115.844 26.028 114.728V111.296ZM37.5536 114.872C37.5536 113.276 36.3776 112.064 34.6496 112.064C34.4096 112.064 34.1816 112.088 33.9656 112.136L35.4176 109.136C35.4656 109.04 35.5016 108.932 35.5016 108.824C35.5016 108.5 35.2496 108.272 34.9256 108.272C34.6616 108.272 34.4696 108.452 34.3616 108.668L32.5256 112.556C32.3216 112.952 31.7456 113.924 31.7456 114.872C31.7456 116.468 32.9216 117.68 34.6496 117.68C36.3776 117.68 37.5536 116.468 37.5536 114.872ZM36.3416 114.872C36.3416 115.82 35.6936 116.6 34.6256 116.6C33.5456 116.6 32.8976 115.82 32.8976 114.872C32.8976 113.912 33.5456 113.144 34.6256 113.144C35.6936 113.144 36.3416 113.912 36.3416 114.872ZM41.7097 119.456L45.6697 108.488C45.7777 108.164 45.7297 107.804 45.2737 107.804C45.0457 107.804 44.9017 107.984 44.8297 108.188L40.9057 119.024C40.8817 119.096 40.8457 119.18 40.8457 119.276C40.8457 119.528 41.0377 119.72 41.2897 119.72C41.4697 119.72 41.6497 119.612 41.7097 119.456ZM50.37 112.82C50.37 113.108 50.61 113.336 50.898 113.336H51.27C52.434 113.336 53.37 113.72 53.37 114.944C53.37 116.036 52.614 116.612 51.162 116.612C50.526 116.612 50.226 116.504 49.938 116.372C49.614 116.204 49.146 116.36 49.146 116.78C49.146 117.008 49.266 117.152 49.458 117.272C49.998 117.62 50.814 117.68 51.258 117.68C53.178 117.68 54.51 116.528 54.51 114.932C54.51 113.912 53.97 113.084 53.01 112.724C53.754 112.352 54.33 111.692 54.33 110.648C54.33 109.196 53.226 108.284 51.582 108.284C50.91 108.284 50.178 108.44 49.614 108.836C49.422 108.968 49.302 109.1 49.302 109.328C49.302 109.628 49.506 109.82 49.794 109.82C50.094 109.82 50.598 109.352 51.45 109.352C52.482 109.352 53.238 109.784 53.238 110.78C53.238 111.872 52.326 112.304 51.258 112.304H50.898C50.61 112.304 50.37 112.532 50.37 112.82ZM56.0205 114.644C56.0205 116.528 56.8725 117.68 58.7925 117.68C60.7125 117.68 61.5885 116.408 61.5885 114.644V111.38C61.5885 109.484 60.7125 108.272 58.7925 108.272C56.8725 108.272 56.0205 109.496 56.0205 111.38V114.644ZM57.1965 111.296C57.1965 109.94 57.7125 109.34 58.7925 109.34C59.8845 109.34 60.4125 109.94 60.4125 111.296V114.728C60.4125 115.844 60.0045 116.612 58.7925 116.612C57.5925 116.612 57.1965 115.844 57.1965 114.728V111.296Z" fill="#2C2A29"/>
<defs>
<filter id="filter0_f_1235_15981" x="138" y="43" width="51" height="51" filterUnits="userSpaceOnUse" color-interpolation-filters="sRGB">
<feFlood flood-opacity="0" result="BackgroundImageFix"/>
<feBlend mode="normal" in="SourceGraphic" in2="BackgroundImageFix" result="shape"/>
<feGaussianBlur stdDeviation="0.5" result="effect1_foregroundBlur_1235_15981"/>
</filter>
<clipPath id="clip0_1235_15981">
<rect width="24.4444" height="22" fill="white" transform="translate(157.556 16)"/>
</clipPath>
</defs>
</svg>
