<svg width="206" height="130" viewBox="0 0 206 130" fill="none" xmlns="http://www.w3.org/2000/svg">
<rect x="1" y="1" width="204" height="128" rx="19" fill="white" stroke="#2C2A29" stroke-width="2"/>
<path d="M149.609 82H147.195V75.3906L147.219 74.3047L147.258 73.1172C146.857 73.5182 146.578 73.7812 146.422 73.9062L145.109 74.9609L143.945 73.5078L147.625 70.5781H149.609V82ZM160.734 82H152.749V80.3203L155.616 77.4219C156.465 76.5521 157.02 75.9505 157.281 75.6172C157.541 75.2786 157.728 74.9661 157.843 74.6797C157.958 74.3932 158.015 74.0964 158.015 73.7891C158.015 73.3307 157.887 72.9896 157.632 72.7656C157.382 72.5417 157.046 72.4297 156.624 72.4297C156.182 72.4297 155.752 72.5312 155.335 72.7344C154.919 72.9375 154.484 73.2266 154.031 73.6016L152.718 72.0469C153.281 71.5677 153.747 71.2292 154.116 71.0312C154.486 70.8333 154.89 70.6823 155.327 70.5781C155.765 70.4688 156.254 70.4141 156.796 70.4141C157.51 70.4141 158.14 70.5443 158.687 70.8047C159.234 71.0651 159.658 71.4297 159.96 71.8984C160.262 72.3672 160.413 72.9036 160.413 73.5078C160.413 74.0339 160.32 74.5286 160.132 74.9922C159.95 75.4505 159.663 75.9219 159.273 76.4062C158.887 76.8906 158.205 77.5807 157.226 78.4766L155.757 79.8594V79.9688H160.734V82ZM169.397 73.1328C169.397 73.8464 169.181 74.4531 168.749 74.9531C168.316 75.4531 167.709 75.7969 166.928 75.9844V76.0312C167.85 76.1458 168.548 76.4271 169.022 76.875C169.496 77.3177 169.733 77.9167 169.733 78.6719C169.733 79.7708 169.334 80.6276 168.538 81.2422C167.741 81.8516 166.603 82.1562 165.124 82.1562C163.884 82.1562 162.785 81.9505 161.827 81.5391V79.4844C162.269 79.7083 162.756 79.8906 163.288 80.0312C163.819 80.1719 164.345 80.2422 164.866 80.2422C165.663 80.2422 166.251 80.1068 166.631 79.8359C167.012 79.5651 167.202 79.1302 167.202 78.5312C167.202 77.9948 166.983 77.6146 166.545 77.3906C166.108 77.1667 165.41 77.0547 164.452 77.0547H163.584V75.2031H164.467C165.353 75.2031 165.999 75.0885 166.405 74.8594C166.816 74.625 167.022 74.2266 167.022 73.6641C167.022 72.7995 166.48 72.3672 165.397 72.3672C165.022 72.3672 164.639 72.4297 164.249 72.5547C163.863 72.6797 163.433 72.8958 162.959 73.2031L161.842 71.5391C162.884 70.7891 164.126 70.4141 165.569 70.4141C166.751 70.4141 167.683 70.6536 168.366 71.1328C169.053 71.612 169.397 72.2786 169.397 73.1328Z" fill="#2C2A29"/>
<rect x="2" y="16" width="202" height="32" fill="#2C2A29"/>
<rect x="24" y="64" width="95" height="24" fill="#2C2A29"/>
<path d="M24.5829 110.174C24.2784 110.174 24 110.009 24 109.583C24 109.157 24.2784 109 24.5829 109H28.6284C29.2983 109 29.8029 109.505 29.8029 110.174V112.428C29.8029 112.898 29.7072 113.237 29.3418 113.567C29.7072 113.898 29.8029 114.237 29.8029 114.707V116.96C29.8029 117.63 29.2983 118.135 28.6284 118.135H24.5829C24.2784 118.135 24 117.97 24 117.552C24 117.134 24.2784 116.969 24.5829 116.969H28.6284V115.02C28.6284 114.359 28.3674 114.168 28.0368 114.168H25.74C25.4355 114.168 25.1571 114.002 25.1571 113.576C25.1571 113.15 25.4355 112.993 25.74 112.993H28.0455C28.3761 112.993 28.6371 112.793 28.6371 112.132V110.174H24.5829Z" fill="#2C2A29"/>
<path d="M37.0848 116.96V114.585C37.0848 114.246 37.2327 113.994 37.6677 113.994C38.1027 113.994 38.2593 114.246 38.2593 114.585V117.543C38.2593 117.97 37.9809 118.126 37.6677 118.126H33.0394C32.7349 118.126 32.4478 117.961 32.4478 117.543C32.4478 117.126 32.7262 116.96 33.0394 116.96H34.7619V110.174H33.0394C32.7349 110.174 32.4478 110.009 32.4478 109.583C32.4478 109.157 32.7262 109 33.0394 109H35.9364V116.96H37.0761H37.0848Z" fill="#2C2A29"/>
<path d="M44.9495 113.985V110.583C44.9495 110.288 45.0887 110 45.5411 110C45.9935 110 46.124 110.296 46.124 110.583V113.985C46.4285 113.985 46.7156 114.15 46.7156 114.568C46.7156 114.986 46.4372 115.151 46.124 115.151V117.543C46.124 117.917 45.9587 118.126 45.5411 118.126C45.1235 118.126 44.9495 117.917 44.9495 117.543V115.151H41.4956V109.583C41.4956 109.287 41.6348 109 42.0872 109C42.5396 109 42.6701 109.296 42.6701 109.583V113.985H44.9495Z" fill="#2C2A29"/>
<path d="M53.9971 116.96V114.585C53.9971 114.246 54.1537 113.994 54.5887 113.994C55.0237 113.994 55.1716 114.246 55.1716 114.585V117.543C55.1716 117.97 54.8932 118.126 54.5887 118.126H49.9603C49.6558 118.126 49.3774 117.961 49.3774 117.543C49.3774 117.126 49.6558 116.96 49.9603 116.96H51.6916V110.174H49.9603C49.6558 110.174 49.3774 110.009 49.3774 109.583C49.3774 109.157 49.6558 109 49.9603 109H52.8661V116.96H54.0058H53.9971Z" fill="#2C2A29"/>
<path d="M68.6137 112.985H70.7713C71.1454 112.985 71.4325 113.045 71.7109 113.315C72.0415 113.62 72.0763 113.898 72.0763 114.316V116.83C72.0763 117.195 72.0415 117.456 71.7979 117.743C71.5021 118.1 71.1976 118.144 70.7713 118.144H68.1613C67.8568 118.144 67.6828 118.065 67.387 117.935L66.9433 117.735C66.6301 117.596 66.2734 117.482 66.2734 117.074C66.2734 116.769 66.5344 116.491 66.8389 116.491C66.9781 116.491 67.0825 116.525 67.213 116.586L67.5697 116.743C67.735 116.813 68.0047 116.978 68.1961 116.978H70.9105V114.168H67.4479V109H71.5021C71.8066 109 72.0937 109.165 72.0937 109.583C72.0937 110 71.8153 110.174 71.5021 110.174H68.6224V112.985H68.6137Z" fill="#2C2A29"/>
<path d="M79.3667 113.176H75.3299C74.9993 113.176 74.7383 112.898 74.7383 112.593V109.583C74.7383 109.278 74.9993 109 75.3299 109H79.9583C80.2889 109 80.5412 109.287 80.5412 109.583V117.552C80.5412 117.865 80.3063 118.135 79.9583 118.135H79.3667C79.01 118.135 78.7751 117.865 78.7751 117.552C78.7751 117.204 79.0187 116.969 79.3667 116.969V113.176ZM79.3667 112.001V110.174H75.9128V112.001H79.3667Z" fill="#2C2A29"/>
<path d="M84.3605 116.96H88.3973C88.7018 116.96 88.9802 117.126 88.9802 117.543C88.9802 117.961 88.7018 118.126 88.3973 118.126H83.186V114.307C83.186 113.428 83.6297 112.985 84.5171 112.985H87.8144V110.174H83.7689C83.4644 110.174 83.186 110.009 83.186 109.583C83.186 109.157 83.4644 109 83.7689 109H87.6665C88.058 109 88.3277 109.061 88.6148 109.331C88.9454 109.635 88.9802 109.957 88.9802 110.375V112.784C88.9802 113.211 88.9454 113.524 88.6148 113.828C88.319 114.098 88.0493 114.159 87.6665 114.159H84.3518V116.969L84.3605 116.96Z" fill="#2C2A29"/>
<path d="M92.8165 113.985H96.7402C97.3318 113.985 97.4449 114.229 97.4449 114.768V117.395C97.4449 117.944 97.21 118.135 96.6793 118.135H92.3989C91.8508 118.135 91.6333 117.935 91.6333 117.395V109.583C91.6333 109.313 91.729 109 92.1379 109H92.8426C93.1471 109 93.3907 109.287 93.3907 109.583C93.3907 109.94 93.1471 110.174 92.8078 110.174V113.985H92.8165ZM92.8165 115.16V116.969H96.2704V115.16H92.8165Z" fill="#2C2A29"/>
<path d="M110.895 112.985H113.053C113.427 112.985 113.714 113.045 113.993 113.315C114.315 113.62 114.358 113.898 114.358 114.316V116.83C114.358 117.195 114.323 117.456 114.08 117.743C113.784 118.1 113.479 118.144 113.053 118.144H110.443C110.139 118.144 109.965 118.065 109.669 117.935L109.225 117.735C108.912 117.596 108.555 117.482 108.555 117.074C108.555 116.769 108.816 116.491 109.121 116.491C109.26 116.491 109.364 116.525 109.495 116.586L109.843 116.743C110.008 116.813 110.278 116.978 110.469 116.978H113.184V114.168H109.721V109H113.775C114.08 109 114.358 109.165 114.358 109.583C114.358 110 114.08 110.174 113.775 110.174H110.895V112.985Z" fill="#2C2A29"/>
<path d="M117.603 110.174C117.298 110.174 117.02 110.009 117.02 109.583C117.02 109.157 117.298 109 117.603 109H121.648C122.318 109 122.823 109.505 122.823 110.174V112.428C122.823 112.898 122.727 113.237 122.362 113.567C122.727 113.898 122.823 114.237 122.823 114.707V116.96C122.823 117.63 122.318 118.135 121.648 118.135H117.603C117.298 118.135 117.02 117.97 117.02 117.552C117.02 117.134 117.298 116.969 117.603 116.969H121.648V115.02C121.648 114.359 121.387 114.168 121.057 114.168H118.751C118.447 114.168 118.16 114.002 118.16 113.576C118.16 113.15 118.447 112.993 118.751 112.993H121.057C121.387 112.993 121.648 112.793 121.648 112.132V110.174H117.603Z" fill="#2C2A29"/>
<path d="M127.808 112.985H129.974C130.349 112.985 130.636 113.045 130.914 113.315C131.245 113.62 131.279 113.898 131.279 114.316V116.83C131.279 117.195 131.245 117.456 130.992 117.743C130.697 118.1 130.392 118.144 129.974 118.144H127.364C127.06 118.144 126.886 118.065 126.59 117.935L126.146 117.735C125.833 117.596 125.477 117.482 125.477 117.074C125.477 116.769 125.738 116.491 126.042 116.491C126.181 116.491 126.286 116.525 126.416 116.586L126.764 116.743C126.929 116.813 127.199 116.978 127.391 116.978H130.105V114.168H126.642V109H130.697C131.001 109 131.288 109.165 131.288 109.583C131.288 110 131.001 110.174 130.697 110.174H127.817V112.985H127.808Z" fill="#2C2A29"/>
<path d="M137.961 109C138.361 109 138.553 109.287 138.553 109.583V112.976C138.918 112.976 139.196 113.106 139.405 113.306C139.614 113.507 139.727 113.802 139.727 114.168V116.96C139.727 117.674 139.283 118.135 138.553 118.135H135.099C134.368 118.135 133.924 117.683 133.924 116.96V114.168C133.924 113.802 134.029 113.507 134.238 113.306C134.446 113.106 134.733 112.976 135.099 112.976V109.583C135.099 109.278 135.282 109 135.682 109H137.961ZM138.553 116.96V114.15H135.099V116.96H138.553ZM137.378 112.976V110.174H136.273V112.985H137.378V112.976Z" fill="#2C2A29"/>
<path d="M155.465 113.176H151.429C151.098 113.176 150.837 112.898 150.837 112.593V109.583C150.837 109.278 151.098 109 151.429 109H156.057C156.387 109 156.64 109.287 156.64 109.583V117.552C156.64 117.865 156.405 118.135 156.057 118.135H155.474C155.117 118.135 154.882 117.865 154.882 117.552C154.882 117.204 155.126 116.969 155.474 116.969V113.176H155.465ZM155.465 112.001V110.174H152.011V112.001H155.465Z" fill="#2C2A29"/>
<path d="M160.468 110.174C160.468 110.435 160.259 110.757 159.876 110.757C159.494 110.757 159.293 110.427 159.293 110.174V109.583C159.293 109.322 159.502 109 159.876 109H165.096V112.402C165.096 112.819 165.105 112.863 164.783 113.141L163.139 114.559C162.834 114.829 162.808 114.855 162.808 115.264V117.543C162.808 117.917 162.643 118.126 162.225 118.126C161.808 118.126 161.642 117.917 161.642 117.543V114.716C161.642 114.324 161.651 114.29 161.947 114.037L163.565 112.637C163.957 112.297 163.931 112.306 163.931 111.793V110.174H160.477H160.468Z" fill="#2C2A29"/>
<path d="M172.378 113.176H168.332C168.002 113.176 167.75 112.898 167.75 112.593V109.583C167.75 109.278 168.011 109 168.332 109H172.961C173.283 109 173.544 109.287 173.544 109.583V117.552C173.544 117.865 173.309 118.135 172.961 118.135H172.369C172.021 118.135 171.786 117.865 171.786 117.552C171.786 117.204 172.03 116.969 172.369 116.969V113.176H172.378ZM172.378 112.001V110.174H168.924V112.001H172.378Z" fill="#2C2A29"/>
<path d="M176.789 110.174C176.484 110.174 176.206 110.009 176.206 109.583C176.206 109.157 176.484 109 176.789 109H180.826C181.496 109 182 109.505 182 110.174V112.428C182 112.898 181.905 113.237 181.539 113.567C181.905 113.898 182 114.237 182 114.707V116.96C182 117.63 181.496 118.135 180.826 118.135H176.789C176.484 118.135 176.206 117.97 176.206 117.552C176.206 117.134 176.484 116.969 176.789 116.969H180.826V115.02C180.826 114.359 180.565 114.168 180.234 114.168H177.937C177.633 114.168 177.346 114.002 177.346 113.576C177.346 113.15 177.633 112.993 177.937 112.993H180.234C180.565 112.993 180.826 112.793 180.826 112.132V110.174H176.789Z" fill="#2C2A29"/>
<g filter="url(#filter0_f_1162_15829)">
<circle cx="157.5" cy="75.5" r="24" stroke="#ED0000"/>
</g>
<defs>
<filter id="filter0_f_1162_15829" x="132" y="50" width="51" height="51" filterUnits="userSpaceOnUse" color-interpolation-filters="sRGB">
<feFlood flood-opacity="0" result="BackgroundImageFix"/>
<feBlend mode="normal" in="SourceGraphic" in2="BackgroundImageFix" result="shape"/>
<feGaussianBlur stdDeviation="0.5" result="effect1_foregroundBlur_1162_15829"/>
</filter>
</defs>
</svg>
